<svg xmlns="http://www.w3.org/2000/svg" width="1200" height="300" viewBox="0 0 1200 300" fill="none">
  <rect width="1200" height="300" rx="20" fill="#0D1117"/>
  <rect x="0" y="0" width="8" height="300" rx="0" fill="#3DDC97"/>
  <circle cx="1040" cy="60" r="90" fill="#3DDC97" fill-opacity="0.12"/>
  <circle cx="1120" cy="220" r="70" fill="#3DDC97" fill-opacity="0.08"/>

  <rect x="820" y="70" width="300" height="160" rx="14" fill="#161B22" stroke="#3DDC97" stroke-opacity="0.45"/>
  <circle cx="846" cy="94" r="5" fill="#FF5F56"/>
  <circle cx="864" cy="94" r="5" fill="#FFBD2E"/>
  <circle cx="882" cy="94" r="5" fill="#27C93F"/>
  <rect x="840" y="120" width="260" height="8" rx="4" fill="#3DDC97"/>
  <rect x="840" y="142" width="180" height="8" rx="4" fill="#3DDC97" fill-opacity="0.4"/>
  <rect x="840" y="164" width="220" height="8" rx="4" fill="#3DDC97" fill-opacity="0.25"/>
  <rect x="840" y="190" width="100" height="24" rx="6" fill="#3DDC97"/>
  <text x="866" y="207" fill="#0D1117" font-family="Arial, sans-serif" font-size="12" font-weight="700">PASS</text>
  <rect x="956" y="190" width="100" height="24" rx="6" fill="#161B22" stroke="#3DDC97" stroke-opacity="0.5"/>
  <text x="987" y="207" fill="#3DDC97" font-family="Arial, sans-serif" font-size="12" font-weight="700">E2E</text>

  <text x="56" y="100" fill="#8B949E" font-family="Arial, sans-serif" font-size="16" letter-spacing="3">QA AUTOMATION</text>
  <text x="56" y="160" fill="#F0F6FC" font-family="Arial, sans-serif" font-size="52" font-weight="700">AnzeMiles69</text>
  <rect x="56" y="180" width="200" height="4" rx="2" fill="#3DDC97"/>
  <text x="56" y="230" fill="#C9D1D9" font-family="Arial, sans-serif" font-size="20">Playwright · TypeScript · Quality First</text>
</svg>
